<?xml version="1.0" standalone="no"?>
<!DOCTYPE svg PUBLIC "-//W3C//DTD SVG 20010904//EN"
 "http://www.w3.org/TR/2001/REC-SVG-20010904/DTD/svg10.dtd">
<svg version="1.0" xmlns="http://www.w3.org/2000/svg"
 width="400.000000pt" height="400.000000pt" viewBox="0 0 400.000000 400.000000"
 preserveAspectRatio="xMidYMid meet">

<g transform="translate(0.000000,400.000000) scale(0.100000,-0.100000)"
fill="#000000" stroke="none">
<path d="M0 2000 l0 -2000 2000 0 2000 0 0 2000 0 2000 -2000 0 -2000 0 0
-2000z m564 283 l-6 -122 -57 42 c-31 22 -88 68 -128 101 -78 65 -81 76 -26
111 15 10 59 44 97 75 115 92 110 93 118 -3 4 -45 5 -137 2 -204z m2933 220
c42 -32 96 -73 120 -91 24 -18 43 -36 43 -40 0 -7 -174 -149 -232 -190 -17
-13 -18 -6 -18 182 0 108 2 196 6 196 3 0 39 -26 81 -57z m-3118 -312 c46 -36
98 -78 115 -92 37 -32 910 -729 1058 -846 56 -44 144 -113 193 -152 130 -103
215 -129 319 -99 48 14 74 30 183 117 45 36 121 98 169 136 48 39 129 104 179
145 51 41 128 103 171 137 44 34 91 72 105 85 15 13 85 68 155 123 70 55 144
114 163 131 20 17 92 75 160 130 68 54 169 136 225 180 l101 81 8 -141 c4 -77
6 -506 5 -952 l-3 -810 -25 -36 c-13 -20 -38 -44 -55 -55 -29 -17 -92 -18
-1615 -18 -1301 0 -1592 2 -1623 13 -25 9 -47 28 -65 55 l-27 41 -3 954 c-2
779 -1 952 10 946 7 -4 51 -37 97 -73z m-145 -1927 c23 -9 20 -24 -4 -24 -11
0 -20 7 -20 15 0 17 2 18 24 9z"/>
</g>
</svg>
